Coordinates
version=1
nRows=21
nColumns=28
inDegrees=yes

Units are S.I. units (second, meters, Newtons, ...)
Angles are in degrees.

endheader
time	pelvis_tilt	pelvis_list	pelvis_rotation	pelvis_tx	pelvis_ty	pelvis_tz	hip_flexion_r	hip_adduction_r	hip_rotation_r	knee_angle_r	ankle_angle_r	subtalar_angle_r	mtp_angle_r	hip_flexion_l	hip_adduction_l	hip_rotation_l	knee_angle_l	socket_flexion	socket_adduction	socket_rotation	socket_tx	socket_ty	socket_tz	foot_flex	lumbar_extension	lumbar_bending	lumbar_rotation
      0.31250000	      0.50351730	     -1.41508837	     -4.08245280	     -0.46006062	      1.02747576	      0.29575965	     15.05750808	      1.75280040	     -1.61225043	    -65.67271751	     10.11751528	    -13.34714709	     -3.77720991	      0.48703308	     -0.12165744	     -5.17795069	     -1.62936250	      0.23351552	      1.48133135	     15.39982794	      0.00027784	     -0.03164235	      0.00119527	     -1.47318383	    -10.30850987	     -2.18154438	      4.34873590
      0.31666667	      0.56573720	     -1.42570709	     -3.95910808	     -0.45519329	      1.02806910	      0.29559782	     15.58642990	      1.79589656	     -1.65877183	    -65.34263746	     10.17693753	    -13.34048672	     -3.77901642	      0.23228527	     -0.10445096	     -5.20201349	     -1.67334221	      0.25998225	      1.50585316	     15.44245656	      0.00130112	     -0.03133906	      0.00093022	     -1.40646167	    -10.48735121	     -2.17612447	      4.34406145
      0.32083333	      0.56628223	     -1.60142898	     -3.73792819	     -0.44922162	      1.02865003	      0.29529157	     16.00982062	      1.94214542	     -1.86914517	    -64.85234348	     10.57020864	    -13.21256193	     -3.76472219	     -0.36886559	     -0.22838613	     -5.13377507	     -1.51288399	      0.13957009	      1.44454928	     15.72882766	     -0.00024998	     -0.03110564	      0.00188460	     -1.03137194	    -10.37781072	     -1.93730621	      4.26703455
      0.32500000	      0.63016697	     -1.62201101	     -3.64189156	     -0.44437102	      1.02920321	      0.29525159	     16.52941369	      1.97270782	     -1.92072259	    -64.46277315	     10.66396847	    -13.17767978	     -3.75788741	     -0.61611271	     -0.24608316	     -5.17352889	     -1.55744110	      0.16450287	      1.46903085	     15.74536387	      0.00085218	     -0.03075363	      0.00151467	     -1.02988636	    -10.56576377	     -1.90951627	      4.24628577
      0.32916667	      0.89771023	     -2.38081602	     -3.34688194	     -0.43819584	      1.02989462	      0.29495761	     16.45124101	      2.73358104	     -2.31423702	    -63.65322002	     11.83236961	    -11.93998125	     -3.80036316	     -1.71940391	     -1.32377163	     -4.97270401	     -1.28558929	     -0.16685172	      1.77247890	     15.90533943	     -0.00267239	     -0.03163146	     -0.00082244	     -0.98738496	    -10.79515719	     -0.93111811	      3.67309704
      0.33333333	      0.95705518	     -2.37590667	     -3.24664754	     -0.43337326	      1.03035987	      0.29491821	     16.96488687	      2.73571831	     -2.36322633	    -63.21854678	     11.89031521	    -11.95031938	     -3.80919102	     -1.96251734	     -1.31210669	     -5.00800729	     -1.33418306	     -0.13722505	      1.80130132	     15.93150720	     -0.00166402	     -0.03127977	     -0.00111755	     -0.92449533	    -10.96737915	     -0.92917511	      3.67076164
      0.33750000	      0.94896615	     -2.49230514	     -3.02331567	     -0.42736430	      1.03091471	      0.29462273	     17.27388191	      2.82901106	     -2.54413306	    -62.42762609	     12.18490175	    -11.94143537	     -3.84132927	     -2.48483651	     -1.38107352	     -4.98340055	     -1.20813292	     -0.22906353	      1.74114052	     16.15981247	     -0.00268887	     -0.03094546	     -0.00036895	     -0.59223072	    -10.81928191	     -0.78816112	      3.62290009
      0.34166667	      1.00477453	     -2.50620422	     -2.94420741	     -0.42265942	      1.03121971	      0.29461315	     17.80198218	      2.83945796	     -2.61204104	    -61.98487426	     12.27277623	    -11.93177585	     -3.84336809	     -2.73682700	     -1.39530596	     -5.01568542	     -1.24294735	     -0.20785821	      1.75723652	     16.19756017	     -0.00183635	     -0.03072120	     -0.00066214	     -0.57527248	    -11.01695113	     -0.75131225	      3.60591455
      0.34583333	      1.36235631	     -3.32970669	     -2.56824534	     -0.41618524	      1.03200680	      0.29405906	     17.49318453	      3.58220273	     -3.19047380	    -60.87021589	     13.20555343	    -11.18804063	     -4.14814176	     -3.95687451	     -2.52979783	     -4.92991134	     -0.95500973	     -0.54918282	      2.03553836	     16.38437519	     -0.00545779	     -0.03151977	     -0.00284501	     -0.53095404	    -11.27826969	      0.34721499	      3.01573805
      0.35000000	      1.39823857	     -3.33662374	     -2.42514018	     -0.41105118	      1.03242071	      0.29412112	     17.88006442	      3.62465571	     -3.22297742	    -60.15933413	     13.30931605	    -11.24976559	     -4.21773446	     -4.29988634	     -2.54538399	     -4.87155665	     -0.93757969	     -0.56168832	      2.02986092	     16.55014557	     -0.00528306	     -0.03110050	     -0.00272606	     -0.29056100	    -11.33086935	      0.32165685	      3.01132577
      0.35416667	      1.42041903	     -3.42346478	     -2.25413730	     -0.40555649	      1.03277329	      0.29385952	     18.21141965	      3.67130638	     -3.38656682	    -59.36213938	     13.51711443	    -11.32696003	     -4.29586243	     -4.72637885	     -2.58973212	     -4.91464615	     -0.86978659	     -0.61075095	      1.99152634	     16.66788286	     -0.00564717	     -0.03085033	     -0.00223976	     -0.13958934	    -11.31905666	      0.45062300	      2.97728299
      0.35833333	      1.45252943	     -3.53784183	     -2.09033113	     -0.40009532	      1.03308692	      0.29369041	     18.51763394	      3.75744542	     -3.55342589	    -58.52361418	     13.75167211	    -11.37588569	     -4.38266142	     -5.17694017	     -2.70073874	     -4.92332318	     -0.78979049	     -0.67384760	      1.96479040	     16.82616416	     -0.00613765	     -0.03067390	     -0.00197515	     -0.00803203	    -11.32975135	      0.61118636	      2.90585069
      0.36250000	      2.01499458	     -4.33073055	     -1.75083306	     -0.39473322	      1.03387976	      0.29355914	     18.09824627	      4.56376580	     -4.00739074	    -57.38547147	     14.17487131	    -11.33757503	     -5.26297275	     -6.36542963	     -3.94250586	     -4.82645593	     -0.61952064	     -0.95081610	      2.36707566	     16.98648406	     -0.00869734	     -0.03142098	     -0.00529582	      0.04806182	    -12.00537554	      1.61060983	      2.35413139
      0.36666667	      2.00843297	     -4.30327864	     -1.65502208	     -0.38952105	      1.03408835	      0.29354362	     18.47105773	      4.51859180	     -4.08068572	    -56.53990801	     14.31122445	    -11.44600332	     -5.33189540	     -6.65490030	     -3.89212384	     -4.88350733	     -0.61553529	     -0.95108578	      2.35054731	     17.04056259	     -0.00839657	     -0.03106870	     -0.00516038	      0.19717578	    -11.98934482	      1.57798359	      2.37991652
      0.37083333	      1.98519195	     -4.32000545	     -1.53090880	     -0.38421032	      1.03422326	      0.29343442	     18.82383998	      4.50631502	     -4.19435575	    -55.63863318	     14.48967336	    -11.57794902	     -5.41006329	     -6.99995590	     -3.86618489	     -4.91576039	     -0.56131832	     -0.97960199	      2.28985356	     17.16993628	     -0.00857807	     -0.03081309	     -0.00456560	      0.34236228	    -11.94283347	      1.60832829	      2.38394157
      0.37500000	      1.97382759	     -4.35019758	     -1.41990348	     -0.37890247	      1.03431905	      0.29333503	     19.15059685	      4.49603336	     -4.33966853	    -54.70369662	     14.67029745	    -11.71314262	     -5.49210098	     -7.34762512	     -3.86688808	     -4.95822633	     -0.51470349	     -1.00727508	      2.24457287	     17.28584523	     -0.00867288	     -0.03058684	     -0.00417469	      0.47147946	    -11.90805528	      1.66271925	      2.36356029
      0.37916667	      1.96413360	     -4.39789664	     -1.28236377	     -0.37356756	      1.03438400	      0.29323055	     19.44507380	      4.50562593	     -4.49626132	    -53.71519208	     14.85397345	    -11.86654491	     -5.58994913	     -7.71434296	     -3.89252770	     -4.99468804	     -0.45763720	     -1.04229701	      2.19747802	     17.42082601	     -0.00893367	     -0.03043896	     -0.00371708	      0.60618256	    -11.87715714	      1.74640931	      2.32277798
      0.38333333	      1.95553221	     -4.44709801	     -1.15923366	     -0.36825808	      1.03447303	      0.29309838	     19.71697431	      4.51074425	     -4.66436120	    -52.67324732	     15.02690800	    -12.03016769	     -5.69408188	     -8.06993939	     -3.93120092	     -5.03550794	     -0.41038805	     -1.07515165	      2.16994767	     17.54186982	     -0.00914037	     -0.03022153	     -0.00346668	      0.73779300	    -11.85733789	      1.82198239	      2.26795798
      0.38750000	      2.50127444	     -5.29356670	     -0.69636481	     -0.36291682	      1.03512532	      0.29281805	     19.16616984	      5.37458445	     -5.20810356	    -51.16110726	     15.04374352	    -12.91296584	     -7.02083344	     -9.19645344	     -5.27025264	     -4.98460338	     -0.25017390	     -1.34261792	      2.57331374	     17.84806512	     -0.01167007	     -0.03096479	     -0.00662909	      0.81994782	    -12.51410022	      2.94664718	      1.60617847
      0.39166667	      2.45019327	     -5.23598367	     -0.64406627	     -0.35782969	      1.03504755	      0.29293613	     19.49333614	      5.30678839	     -5.25350932	    -50.10966708	     15.21434413	    -13.00542139	     -7.09487591	     -9.43126684	     -5.20500637	     -5.06806272	     -0.25793412	     -1.33156883	      2.55655137	     17.85931470	     -0.01143748	     -0.03070092	     -0.00662404	      0.97335093	    -12.47936625	      2.84718448	      1.64671448
      0.39583333	      2.38445967	     -5.19822133	     -0.57731722	     -0.35262239	      1.03492952	      0.29297800	     19.79675018	      5.24411920	     -5.34888397	    -48.99485885	     15.38787620	    -13.14709184	     -7.17985067	     -9.70486769	     -5.13104238	     -5.11693596	     -0.22695800	     -1.34369374	      2.51210920	     17.94786074	     -0.01147010	     -0.03046714	     -0.00613941	      1.11889589	    -12.41111563	      2.80237737	      1.67520863
